# xmcd
#
# Track frame offsets:
#	150
#	11661
#	21083
#	37874
#	48427
#	58597
#	75309
#	88321
#	104030
#	115282
#	129778
#	140517
#	157985
#
# Disc length: 2278 seconds
#
# Revision: 1
# Processed by: cddbd v1.5.2PL0 Copyright (c) Steve Scherf et al.
# Submitted via: EZCDAudioConverter 5.0.5.1
#
DISCID=9f08e40d
DTITLE=The Grascals - When I Get My Pay
DYEAR=2013
DGENRE=Country
TTITLE0=When I Get My Pay
TTITLE1=They're Gonna Find It (American Pickers Theme)
TTITLE2=Two Boys On A Dirt Road
TTITLE3=Are You Up For Getting Down Tonight
TTITLE4=When I Fall In Love Again
TTITLE5=Bluegrass Melodies
TTITLE6=Mister Fix It
TTITLE7=When Your Rock Turns To Stone
TTITLE8=Roll On Big Mama
TTITLE9=It Won't Break My Heart
TTITLE10=Headin' South
TTITLE11=Silver Strands
TTITLE12=Five Miles To Milan
EXTD=
EXTT0=
EXTT1=
EXTT2=
EXTT3=
EXTT4=
EXTT5=
EXTT6=
EXTT7=
EXTT8=
EXTT9=
EXTT10=
EXTT11=
EXTT12=
PLAYORDER=
